<svg width="261" height="261" viewBox="0 0 261 261" fill="none" xmlns="http://www.w3.org/2000/svg">
<path d="M192.818 178.707L236.715 222.961L222.22 237.575L178.322 193.32C162.538 206.051 142.521 213.667 120.75 213.667C69.828 213.667 28.5 172.003 28.5 120.667C28.5 69.3307 69.828 27.6667 120.75 27.6667C171.672 27.6667 213 69.3307 213 120.667C213 142.615 205.446 162.795 192.818 178.707ZM172.253 171.04C184.787 158.018 192.5 140.255 192.5 120.667C192.5 80.7025 160.392 48.3333 120.75 48.3333C81.1081 48.3333 49 80.7025 49 120.667C49 160.631 81.1081 193 120.75 193C140.18 193 157.8 185.224 170.717 172.589L172.253 171.04ZM132.823 81.1545C125.705 84.3948 120.75 91.6141 120.75 100C120.75 111.414 129.928 120.667 141.25 120.667C149.568 120.667 156.73 115.672 159.944 108.495C161.118 112.343 161.75 116.43 161.75 120.667C161.75 143.494 143.393 162 120.75 162C98.1063 162 79.75 143.494 79.75 120.667C79.75 97.8389 98.1063 79.3333 120.75 79.3333C124.952 79.3333 129.006 79.9706 132.823 81.1545Z" fill="white"/>
</svg>
