<svg width="640" height="110" viewBox="0 0 640 110" fill="none" xmlns="http://www.w3.org/2000/svg">
<g clip-path="url(#clip0_1_2)">
<path d="M106.706 77.3945L128 98.899L120.969 106L99.6749 84.4955C92.0185 90.6817 82.3087 94.3824 71.7481 94.3824C47.0472 94.3824 27 74.1367 27 49.1912C27 24.2456 47.0472 4 71.7481 4C96.4491 4 116.496 24.2456 116.496 49.1912C116.496 59.8563 112.832 69.6623 106.706 77.3945ZM96.731 73.6687C102.811 67.341 106.552 58.7094 106.552 49.1912C106.552 29.7715 90.9774 14.0425 71.7481 14.0425C52.5189 14.0425 36.944 29.7715 36.944 49.1912C36.944 68.6108 52.5189 84.3399 71.7481 84.3399C81.1731 84.3399 89.72 80.5614 95.9857 74.4214L96.731 73.6687ZM77.6047 29.9912C74.1516 31.5657 71.7481 35.0738 71.7481 39.1487C71.7481 44.6952 76.2001 49.1912 81.6921 49.1912C85.7269 49.1912 89.2009 46.7639 90.7601 43.2768C91.3294 45.1466 91.6362 47.1325 91.6362 49.1912C91.6362 60.2836 82.7318 69.2761 71.7481 69.2761C60.7643 69.2761 51.8601 60.2836 51.8601 49.1912C51.8601 38.0986 60.7643 29.1062 71.7481 29.1062C73.7867 29.1062 75.7531 29.4159 77.6047 29.9912Z" fill="#4DD0E1"/>
<path d="M178.4 58.135C188.15 59.825 194.78 60.54 194.78 68.535C194.78 76.465 188.02 79.975 175.475 79.975C163.255 79.975 155.65 76.14 155.65 68.34H166.375C166.375 71.785 170.47 73.28 176.125 73.28C181.715 73.28 184.64 72.24 184.64 69.575C184.64 66.455 180.35 66.065 171.12 64.505C161.955 63.01 157.015 61.06 157.015 54.17C157.015 47.215 163.19 43.445 174.89 43.445C187.11 43.445 193.22 47.995 193.22 54.365H183.275C183.275 52.155 180.74 49.945 174.76 49.945C169.365 49.945 166.44 51.05 166.44 53.715C166.44 56.705 172.225 57.03 178.4 58.135ZM237.669 64.245H206.924C207.704 68.99 211.019 73.15 218.234 73.15C223.499 73.15 226.879 70.81 228.244 67.885H236.954C234.679 76.53 226.814 79.975 218.234 79.975C208.354 79.975 198.019 74.515 198.019 61.71C198.019 48.905 208.224 43.445 218.169 43.445C228.244 43.445 238.709 49.62 237.669 64.245ZM218.169 50.205C211.994 50.205 208.549 53.585 207.249 57.745H228.634C227.594 53.585 224.669 50.205 218.169 50.205ZM260.231 43.445C270.176 43.445 278.886 46.305 278.886 56.51V79H269.006V74.385C267.511 76.66 262.506 79.975 254.771 79.975C246.646 79.975 241.056 76.595 241.056 69.77C241.056 62.49 244.826 56.64 269.006 58.135V56.51C269.006 52.87 267.381 50.205 260.231 50.205C254.251 50.205 252.366 51.96 251.846 54.365H242.616C243.721 46.695 250.741 43.445 260.231 43.445ZM269.006 68.86V63.985C255.876 63.27 251.001 64.505 251.001 69.445C251.001 72.695 253.406 73.995 257.696 73.995C263.026 73.995 267.186 71.915 269.006 68.86ZM309.493 43.51C311.768 43.51 313.458 43.705 314.628 44.03V53.13H314.303C313.068 52.61 310.728 52.025 307.738 52.025C299.548 52.025 296.558 57.16 296.558 62.555V79H286.678V44.355H296.558V50.725C297.988 48.255 302.083 43.51 309.493 43.51ZM338.028 73.15C344.528 73.15 347.713 69.835 348.883 65.48H357.723C355.903 75.88 347.128 79.975 338.028 79.975C327.888 79.975 317.228 75.1 317.228 61.71C317.228 48.32 327.888 43.445 338.028 43.445C347.128 43.445 355.903 47.54 357.723 57.94H348.883C347.713 53.52 344.528 50.205 338.028 50.205C329.708 50.205 326.523 55.6 326.523 61.71C326.523 67.755 329.708 73.15 338.028 73.15ZM386.558 43.445C395.463 43.445 400.663 48.255 400.663 56.055V79H390.848V58.525C390.848 54.365 388.378 50.79 382.268 50.79C376.158 50.79 373.428 54.495 373.428 58.525V79H363.548V33.5H373.428V49.23C374.988 47.15 379.213 43.445 386.558 43.445ZM412.65 68.99C415.64 68.99 418.11 71.46 418.11 74.515C418.11 77.505 415.64 79.975 412.65 79.975C409.66 79.975 407.19 77.505 407.19 74.515C407.19 71.46 409.66 68.99 412.65 68.99ZM445.59 38.505C439.155 37.985 435.645 38.245 435.645 44.355H444.68V51.115H435.645V79H425.83V51.115H420.045V44.355H425.83C425.83 37.465 428.235 31.03 439.805 31.03C442.08 31.03 443.575 31.225 445.59 31.485V38.505ZM473.58 43.51C475.855 43.51 477.545 43.705 478.715 44.03V53.13H478.39C477.155 52.61 474.815 52.025 471.825 52.025C463.635 52.025 460.645 57.16 460.645 62.555V79H450.765V44.355H460.645V50.725C462.075 48.255 466.17 43.51 473.58 43.51ZM504.18 32.59C515.62 32.59 526.345 39.22 526.345 56.25C526.345 73.345 515.62 79.975 504.18 79.975C492.675 79.975 481.95 73.345 481.95 56.25C481.95 39.22 492.675 32.59 504.18 32.59ZM504.18 72.63C513.8 72.63 516.92 65.22 516.92 56.25C516.92 47.345 513.8 39.87 504.18 39.87C494.495 39.87 491.44 47.345 491.44 56.25C491.44 65.22 494.495 72.63 504.18 72.63ZM551.706 58.135C561.456 59.825 568.086 60.54 568.086 68.535C568.086 76.465 561.326 79.975 548.781 79.975C536.561 79.975 528.956 76.14 528.956 68.34H539.681C539.681 71.785 543.776 73.28 549.431 73.28C555.021 73.28 557.946 72.24 557.946 69.575C557.946 66.455 553.656 66.065 544.426 64.505C535.261 63.01 530.321 61.06 530.321 54.17C530.321 47.215 536.496 43.445 548.196 43.445C560.416 43.445 566.526 47.995 566.526 54.365H556.581C556.581 52.155 554.046 49.945 548.066 49.945C542.671 49.945 539.746 51.05 539.746 53.715C539.746 56.705 545.531 57.03 551.706 58.135ZM595.86 51.115H585.72V65.675C585.72 71.33 587.8 72.435 595.86 71.59V79C594.56 79.195 593 79.52 590.725 79.52C578.245 79.52 575.84 74.125 575.84 65.48V51.115H569.405V44.355H575.84V35.385H585.72V44.355H595.86V51.115Z" fill="#4DD0E1"/>
</g>
<defs>
<clipPath id="clip0_1_2">
<rect width="640" height="110" fill="white"/>
</clipPath>
</defs>
</svg>
